:FULLY-SPECIFIED
:FORCE-ALL-JOINTS-BE-3DOF
:DEGREES
815
root 1.92819 16.6181 22.5916 4.9515 0.218018 -6.92603
lfemur -37.3198 -1.74204 2.52621
ltibia 22.3526 -0 0
lfoot -9.96602 11.9034 0.447377
ltoes 18.5518 -0 0
rfemur 3.58216 5.46559 22.8233
rtibia 18.8791 -0 0
rfoot -24.8643 -14.0114 -0.800591
rtoes -24.8485 0 0
lowerback 0.389565 6.5189 5.8196
upperback -0.260451 8.72184 -0.351955
thorax 0.427997 4.36763 -3.49138
lowerneck -5.56677 -1.69545 2.9478
upperneck -0.618767 -2.45435 1.53164
head 0.702819 -1.20625 -0.0651471
lclavicle -9.79014e-014 3.18055e-015 0
lhumerus -53.5852 -6.64042 91.1653
lradius 54.4868 -0 0
lwrist 20.0465 0 0
lhand -8.24026 5.43169 -0.00861952
lfingers 7.12502 -0 0
lthumb 17.6774 34.6434 -0.00981438
rclavicle -9.79014e-014 3.18055e-015 0
rhumerus -31.06 46.5608 -112.438
rradius 68.7215 -0 0
rwrist -1.99649 0 0
rhand -8.251 -23.7283 0.116284
rfingers 7.12502 -0 0
rthumb 17.6669 -52.9483 0.118661
816
root 1.96714 16.61 22.7477 4.95039 -0.885478 -7.13844
lfemur -37.0127 -1.4808 2.97924
ltibia 20.7808 -0 0
lfoot -9.44169 12.9481 0.354185
ltoes 18.9114 -0 0
rfemur 4.31842 5.80481 22.8666
rtibia 18.3282 -0 0
rfoot -24.4617 -13.8894 -0.721888
rtoes -25.1587 0 0
lowerback 0.309486 6.61755 5.89949
upperback -0.271312 8.84904 -0.276678
thorax 0.473382 4.432 -3.44746
lowerneck -5.54251 -1.61705 3.04255
upperneck -0.496838 -2.35756 1.48658
head 0.736783 -1.15678 -0.0933842
lclavicle -9.79014e-014 3.18055e-015 0
lhumerus -53.5141 -6.54592 91.0512
lradius 53.8675 -0 0
lwrist 19.6402 0 0
lhand -8.00465 5.44358 -0.00438387
lfingers 7.12502 -0 0
lthumb 17.9041 34.6351 -0.00551808
rclavicle -9.79014e-014 3.18055e-015 0
rhumerus -30.7043 46.4419 -111.801
rradius 68.4211 -0 0
rwrist -2.21205 0 0
rhand -7.71935 -23.4114 0.0834033
rfingers 7.12502 -0 0
rthumb 18.1793 -52.5982 0.0839259
817
root 2.00817 16.6016 22.9055 4.91998 -1.89993 -7.31552
lfemur -36.7052 -1.25145 3.3408
ltibia 19.4153 -0 0
lfoot -8.94712 13.8049 0.257891
ltoes 19.1557 -0 0
rfemur 4.92875 6.07969 22.8369
rtibia 18.0296 -0 0
rfoot -23.9247 -13.6718 -0.603786
rtoes -25.4309 0 0
lowerback 0.231939 6.70259 5.95544
upperback -0.282291 8.95796 -0.203489
thorax 0.512692 4.48701 -3.39365
lowerneck -5.52328 -1.552 3.12875
upperneck -0.352651 -2.27871 1.44475
head 0.779129 -1.11582 -0.120312
lclavicle -9.79014e-014 3.18055e-015 0
lhumerus -53.4569 -6.45033 90.9283
lradius 53.3064 -0 0
lwrist 19.2699 0 0
lhand -7.77842 5.45421 -0.0010735
lfingers 7.12502 -0 0
lthumb 18.1218 34.6263 -0.00206628
rclavicle -9.79014e-014 3.18055e-015 0
rhumerus -30.3697 46.2504 -111.088
rradius 68.1006 -0 0
rwrist -2.37405 0 0
rhand -7.32858 -23.1357 0.0530077
rfingers 7.12502 -0 0
rthumb 18.5557 -52.2951 0.0521978
818
root 2.05133 16.5929 23.065 4.85625 -2.82226 -7.45139
lfemur -36.4007 -1.06154 3.60021
ltibia 18.2848 -0 0
lfoot -8.486 14.4442 0.163362
ltoes 19.2689 -0 0
rfemur 5.39648 6.28688 22.7241
rtibia 18.0101 -0 0
rfoot -23.2406 -13.3438 -0.444302
rtoes -25.659 0 0
lowerback 0.157528 6.77208 5.98541
upperback -0.293246 9.04611 -0.132482
thorax 0.545243 4.53141 -3.32908
lowerneck -5.50988 -1.50143 3.20545
upperneck -0.184001 -2.21934 1.40607
head 0.830689 -1.08413 -0.145903
lclavicle -9.79014e-014 3.18055e-015 0
lhumerus -53.4154 -6.35332 90.7958
lradius 52.8114 -0 0
lwrist 18.9434 0 0
lhand -7.56213 5.46522 0.000986976
lfingers 7.12502 -0 0
lthumb 18.33 34.6188 0.000224901
rclavicle -9.79014e-014 3.18055e-015 0
rhumerus -30.0638 45.9786 -110.297
rradius 67.7576 -0 0
rwrist -2.47634 0 0
rhand -7.09576 -22.9083 0.0275285
rfingers 7.12502 -0 0
rthumb 18.7798 -52.0471 0.0260898
819
root 2.09664 16.5839 23.2261 4.75515 -3.64932 -7.54016
lfemur -36.1022 -0.918509 3.74673
ltibia 17.418 -0 0
lfoot -8.06185 14.8365 0.0756851
ltoes 19.2349 -0 0
rfemur 5.70521 6.42253 22.5181
rtibia 18.2969 -0 0
rfoot -22.3964 -12.8901 -0.242733
rtoes -25.837 0 0
lowerback 0.0868648 6.82409 5.98734
upperback -0.30404 9.11099 -0.0637521
thorax 0.570342 4.56391 -3.2529
lowerneck -5.50312 -1.46647 3.2717
upperneck 0.011315 -2.18102 1.37048
head 0.892294 -1.06244 -0.170133
lclavicle -9.79014e-014 3.18055e-015 0
lhumerus -53.3912 -6.25456 90.6526
lradius 52.3904 -0 0
lwrist 18.6688 0 0
lhand -7.35635 5.47825 0.00146068
lfingers 7.12502 -0 0
lthumb 18.528 34.6143 0.00102683
rclavicle -9.79014e-014 3.18055e-015 0
rhumerus -29.7951 45.6186 -109.425
rradius 67.3895 -0 0
rwrist -2.51278 0 0
rhand -7.03795 -22.7364 0.0092244
rfingers 7.12502 -0 0
rthumb 18.8351 -51.862 0.00801709
820
root 2.14416 16.5748 23.3889 4.61266 -4.37788 352.424
lfemur -35.8129 -0.829675 3.76948
ltibia 16.8436 0 0
lfoot -7.6782 14.9523 0
ltoes 19.0378 0 0
rfemur 5.83887 6.48206 22.2095
rtibia 18.917 0 0
rfoot -21.3786 -12.2951 0
rtoes -25.9589 0 0
lowerback 0.0205861 6.85666 5.95921
upperback -0.314538 9.1501 0.00260752
thorax 0.58729 4.58326 -3.16423
lowerneck -5.50381 -1.44827 3.32656
upperneck 0.235501 -2.16531 1.33786
head 0.964776 -1.05151 -0.192986
lclavicle -2.48481e-016 0 0
lhumerus -53.3862 -6.15374 90.498
lradius 52.0513 0 0
lwrist 18.4542 0 0
lhand -7.16163 5.49493 0
lfingers 7.12502 0 0
lthumb 18.7154 34.6146 0
rclavicle -2.48481e-016 0 0
rhumerus -29.5725 45.1631 -108.471
rradius 66.9941 0 0
rwrist -2.47723 0 0
rhand -7.17223 -22.6272 0
rfingers 7.12502 0 0
rthumb 18.7052 -771.748 0
